<?xml version="1.0" standalone="no"?>
<!DOCTYPE svg PUBLIC "-//W3C//DTD SVG 20010904//EN"
 "http://www.w3.org/TR/2001/REC-SVG-20010904/DTD/svg10.dtd">
<svg version="1.0" xmlns="http://www.w3.org/2000/svg"
 width="512.000000pt" height="512.000000pt" viewBox="0 0 512.000000 512.000000"
 preserveAspectRatio="xMidYMid meet">

<g transform="translate(0.000000,512.000000) scale(0.100000,-0.100000)"
fill="#000000" stroke="none">
<path d="M465 5103 c-95 -13 -188 -53 -269 -117 -59 -47 -133 -160 -159 -241
l-22 -70 0 -2115 0 -2115 22 -70 c51 -161 184 -292 348 -342 57 -17 155 -18
2175 -18 2020 0 2118 1 2175 18 164 50 297 181 348 342 l22 70 0 2115 0 2115
-22 70 c-50 158 -179 287 -343 342 -53 17 -146 18 -2150 19 -1152 1 -2108 -1
-2125 -3z m3385 -1083 l0 -200 -895 0 -895 0 0 -510 0 -510 775 0 775 0 0
-200 0 -200 -775 0 -775 0 0 -750 0 -750 -225 0 -225 0 0 1660 0 1660 1120 0
1120 0 0 -200z"/>
</g>
</svg>
